<svg width="338" height="337" viewBox="0 0 338 337" fill="none" xmlns="http://www.w3.org/2000/svg">
<rect x="0.655762" y="0.0227051" width="336.441" height="336.441" rx="128.434" fill="#11CC95"/>
<path d="M146.921 232.901H109.121C97.9791 232.901 92.4079 232.901 88.1523 230.733C84.4088 228.826 81.3653 225.782 79.458 222.039C77.2896 217.783 77.2896 212.212 77.2896 201.07V125.47C77.2896 114.328 77.2896 108.757 79.458 104.501C81.3653 100.758 84.4088 97.7142 88.1523 95.8069C92.4079 93.6384 97.9791 93.6384 109.121 93.6384H224.51C235.653 93.6384 241.224 93.6384 245.48 95.8069C249.223 97.7142 252.267 100.758 254.174 104.501C256.342 108.757 256.342 114.328 256.342 125.47V128.454M136.974 138.402V128.454M136.974 138.402H156.869M136.974 138.402C125.86 138.401 117.103 139.657 117.08 151.656C117.062 160.612 117.08 163.27 136.975 163.27C156.869 163.27 156.869 165.314 156.869 174.876C156.869 182.061 156.868 188.138 136.974 188.138M136.974 188.138V198.086M136.974 188.138H117.08M186.711 143.375H216.553M186.711 242.849L206.854 238.82C208.61 238.469 209.488 238.293 210.307 237.972C211.034 237.687 211.725 237.317 212.365 236.87C213.087 236.367 213.72 235.734 214.987 234.467L256.342 193.112C261.836 187.618 261.836 178.711 256.342 173.217C250.848 167.723 241.941 167.723 236.447 173.217L195.092 214.572C193.825 215.84 193.192 216.472 192.689 217.195C192.242 217.834 191.872 218.526 191.588 219.253C191.266 220.071 191.09 220.95 190.739 222.705L186.711 242.849Z" stroke="white" stroke-width="19.8947" stroke-linecap="round" stroke-linejoin="round"/>
</svg>
